<svg xmlns="http://www.w3.org/2000/svg" viewBox="0 0 182.32 33.65"><defs><style>.cls-1{fill:#d62a21;}.cls-2{fill:#1e2d80;}.cls-3{fill:#231815;}</style></defs><g id="圖層_2" data-name="圖層 2"><g id="主協辦LOGO"><path class="cls-1" d="M14,17.59H2.15s-2.72-1.75-2-4.54,4.5-2.52,4.5-2.52Z"/><path class="cls-1" d="M18.6,17.21H30.46s2.72-1.74,2-4.53S28,10.16,28,10.16Z"/><path class="cls-1" d="M14.81,15.76l-10-6.28s-1.38-2.93.67-4.94,5.27,0,5.27,0Z"/><path class="cls-1" d="M17.61,15.81,21.69,4.67s2.57-1.95,5-.35,1,5.16,1,5.16Z"/><path class="cls-1" d="M16.05,14.65,12.18,3.43S12.94.28,15.8,0s4.08,3.36,4.08,3.36Z"/><path class="cls-2" d="M9.42,18.38h1.25A4,4,0,0,0,12,21a5.31,5.31,0,0,0,3.11.56V32.25H13.58V22.59a4,4,0,0,1-3.1-1.36,6.14,6.14,0,0,1-1.06-2.85"/><path class="cls-2" d="M22.92,18.39H21.68a4.09,4.09,0,0,1-1.3,2.66,5.25,5.25,0,0,1-3.1.57V32.27h1.49V22.6a4,4,0,0,0,3.09-1.36,6.1,6.1,0,0,0,1.06-2.85"/><path class="cls-2" d="M6.62,18.64H8a13.34,13.34,0,0,0,1.38,3.43,6.12,6.12,0,0,0,2.89,1.65v8.55H10.77V24.71c.32.06-2.29-1-2.88-2.33a14.62,14.62,0,0,1-1.27-3.74"/><path class="cls-2" d="M25.9,18.53H24.54A13,13,0,0,1,23.17,22a6.18,6.18,0,0,1-2.9,1.65v8.54h1.49V24.6c-.32.08,2.28-1,2.87-2.33a14.62,14.62,0,0,0,1.27-3.74"/><path class="cls-3" d="M46.89,2.45c.16.09.24.17.24.23s-.08.25-.26.36l-1.82,2.1c.42.28.83.58,1.24.88l1.34-1.89,1.11.75a.37.37,0,0,1,.2.29c0,.11-.13.18-.35.22l-3.12,4q1.06-.12,2.07-.27c-.14-.32-.26-.62-.41-.91l1.31-.28a13.93,13.93,0,0,1,1.11,3l-1.3.28c-.09-.31-.18-.63-.28-.93l-.9.16v7.26H45.62v-7c-.71.11-1.51.24-2.35.34a.47.47,0,0,1-.34.27c-.11,0-.16-.07-.16-.23l-.31-1.42,1.32-.1,1.68-2.37c-1-.75-2-1.39-2.81-1.94l.83-1.12c.14.11.3.2.44.29l1.84-2.56Zm-1.82,9.94c.14,0,.22.12.22.24s-.12.26-.29.41a23.29,23.29,0,0,1-1,3.79l-1.47-.47a10.33,10.33,0,0,0,.66-1.71A25.51,25.51,0,0,0,43.69,12Zm4.7,3.07-1.38.26a26.25,26.25,0,0,0-1-3.44L48.73,12a20.48,20.48,0,0,1,1,3.44M51.93,5.07a.26.26,0,0,1,.17.24c0,.15-.14.24-.4.27-.27.46-.64,1.06-1.14,1.79A12.53,12.53,0,0,1,52,10l-1.26.28a8.83,8.83,0,0,0-1.64-2.83A17.56,17.56,0,0,0,50.6,4.56Zm6.6-1.15H49.27V2.62h9.26Zm-.36,7.27v1.37H54.8v3.16h3.73v1.4H49.27v-1.4h4V12.56H49.77V11.19ZM54.89,5.07a.26.26,0,0,1,.18.24c0,.15-.15.24-.41.27C54.38,6,54,6.64,53.48,7.37A11.68,11.68,0,0,1,55.07,10l-1.24.28A8.84,8.84,0,0,0,52,7.45a15.91,15.91,0,0,0,1.57-2.89Zm3.25,0a.26.26,0,0,1,.18.24c0,.15-.15.24-.4.27-.34.48-.8,1.08-1.39,1.79A11.06,11.06,0,0,1,58.17,10l-1.23.28A8.73,8.73,0,0,0,55,7.45,16.48,16.48,0,0,0,56.8,4.56Z"/><path class="cls-3" d="M63.66,8.34l-1,1.05a18.71,18.71,0,0,0-2.54-1.87l1-1a15.62,15.62,0,0,1,2.5,1.86m.83,3.86a47.31,47.31,0,0,1-2.71,5c0,.38-.09.57-.26.57l-1.33-1a36.89,36.89,0,0,0,3.4-5.59Zm0-8.47-1,1A18.7,18.7,0,0,0,61,2.9l1-1a13.22,13.22,0,0,1,2.43,1.8m2.31,7.12c.19,0,.3.06.3.12s-.12.23-.34.41v.49h7.18V10.76l1.39.13c.25,0,.39.08.39.22s-.09.2-.26.34v6.29H73.94V15.6H66.25c-.1.25-.21.48-.31.69a6,6,0,0,1-1.19,1.45l-1.24-1.12a4.37,4.37,0,0,0,1.19-1.3,5,5,0,0,0,.54-1.67,23.38,23.38,0,0,0,.13-3Zm1.61-5.6c0,1.47-.08,2.56-.16,3.28A3.54,3.54,0,0,1,67.82,10a1.67,1.67,0,0,1-1.13.53l-.61-1.16.54-.17c.25-.07.39-.35.46-.83s.07-1.07.09-2h-.63a10.38,10.38,0,0,1-.16,1.31,6.77,6.77,0,0,1-.25,1,3.93,3.93,0,0,1-.43.95,6.38,6.38,0,0,1-.67.82l-1-1.05a4,4,0,0,0,.59-.51,2.73,2.73,0,0,0,.44-.74,4.7,4.7,0,0,0,.24-.92,6.82,6.82,0,0,0,.13-.87h-.78V5.25ZM71,1.84c.26,0,.41.1.41.23s-.09.23-.27.4V3h5V4.35H64.68V3h4.91V1.71Zm2.9,12.51V13.11H66.71a12.38,12.38,0,0,1-.12,1.24ZM70.46,6l.92-1.35.84.46c.13.07.2.12.2.18a.24.24,0,0,1-.11.19h1.08v0l.45-.14a5.5,5.5,0,0,0,1.4-.73l.83.91a.39.39,0,0,1,.15.28s-.06.07-.15.07l-.33-.09a1.21,1.21,0,0,0-.37.1.18.18,0,0,1-.11,0,11.92,11.92,0,0,0,.41,1.84,7,7,0,0,0,.81,1.77l-1.24,1a8.7,8.7,0,0,1-.52-1.61,17.76,17.76,0,0,1-.47-2.54l-.86.3V9.07c.39-.08.78-.15,1.16-.24v1.1l-2.13.42c-.15.29-.25.41-.35.41s-.14-.07-.18-.21l-.44-1.16.62-.1V5.76l-1.24,1.5v3.29H69.45V6.84h.14a19.66,19.66,0,0,0-.9-1.95l1.1-.21A13,13,0,0,1,70.46,6"/><path class="cls-3" d="M82,8.28l-.78.48h3.09l-.93-.42,1.37-2.83,1.19.6c.17.09.26.16.26.23s-.12.3-.33.42l-1.17,2h2.4v1.38H77.88V8.76h2.75c-.49-.85-1-1.71-1.57-2.56l1.38-.69c.6,1,1.13,1.88,1.59,2.77M83.34,2c.28,0,.42.11.42.23s-.11.23-.28.41v1.3h3.18v1.4H78.37V3.92h3.52V1.86Zm2.75,9.4v6.21H84.58v-1H80.51v1H79V11.38Zm-1.51,1.38H80.51v2.49h4.07Zm9.18-9.31L91.88,8.28a6.51,6.51,0,0,1,2,4.14,3,3,0,0,1-1.06,2.38,3.94,3.94,0,0,1-2.67.87l-.62-1.58a4.73,4.73,0,0,0,2.26-.65,1.38,1.38,0,0,0,.5-1.16c0-1-.67-2.28-2-3.87L91.81,4h-2.4V17.88H87.83V2.62h4.34q.1-.27.21-.27Z"/><path class="cls-3" d="M102.75,5.25V1.78l1.55.13c.29,0,.45.11.45.24s-.12.22-.36.39V5.25h5.47v7.86h-1.67v-1h-3.8v5.67h-1.64V12.07H99v1H97.36V5.25Zm0,1.51H99v3.78h3.73Zm1.64,3.78h3.8V6.76h-3.8Z"/><path class="cls-3" d="M118,6.29c.15.07.22.12.22.19s-.11.25-.29.36a38.4,38.4,0,0,1-3,6.62l-1.74-.83a24.46,24.46,0,0,0,3.19-7Zm4.46-4.22c.21,0,.31.09.31.2s-.14.31-.42.49V15.53a2,2,0,0,1-.7,1.66c-.39.36-1.38.55-3,.55L118,16.08h1.72a.88.88,0,0,0,1-.91V1.86Zm4.87,7.06a15.34,15.34,0,0,0,2.07,3.5l-1.8.83A24.51,24.51,0,0,1,125.89,10a21.57,21.57,0,0,1-1.18-4.08l1.52-.35a18,18,0,0,0,1.11,3.54"/><path class="cls-3" d="M140,2.37c.21.08.32.2.32.31s-.18.2-.49.29a1,1,0,0,0-.15.16,27.48,27.48,0,0,0,3.48,2.76,27.2,27.2,0,0,0,3.93,2l-1.4,1.38A23.67,23.67,0,0,1,141.84,7a20.27,20.27,0,0,1-3.08-2.77c-.71.79-1.42,1.52-2.09,2.19a28.4,28.4,0,0,1-4.08,3l-1.45-1.25a18.52,18.52,0,0,0,4.07-2.68,24.55,24.55,0,0,0,3.31-3.68Zm.09,4.93c.28,0,.42.09.42.22s-.12.23-.33.41v2.83h4.34V12.2h-4.34v3.47h6.27v1.5h-15v-1.5h3v-5.6l1.44.13c.26,0,.41.08.41.22s-.09.23-.27.41v4.84h2.47V7.17Z"/><path class="cls-3" d="M155.84,1.68c.25,0,.37.07.37.18a.72.72,0,0,1-.27.42V4.42h1.65V1.59l1.34.09c.24,0,.39.07.39.18s-.11.25-.28.42V4.42h1l1.47-2.56,1.13.59c.16.09.25.17.25.23s-.11.25-.28.36l-1,1.38h2.49V5.8h-3.55L160,7.32h3.15V8.69h-5.6v1h5V11h-5v1h6.9v1.37h-6a12.15,12.15,0,0,0,2.54,1.33,27.24,27.24,0,0,0,4,1.15l-1.64,1.51a18.74,18.74,0,0,1-3.32-1.45,11.38,11.38,0,0,1-2.42-1.74v3.74h-1.58V14.19a13.67,13.67,0,0,1-2.67,1.87,20.06,20.06,0,0,1-3.47,1.32L148.42,16a25.51,25.51,0,0,0,4.29-1.38,12.84,12.84,0,0,0,2.18-1.24H149V12h7V11h-5V9.73h5v-1h-5.67V7.32h3.2L153,5.8h-3.73V4.42H152a14.28,14.28,0,0,0-1.19-1.59l1-1a15.72,15.72,0,0,1,1.88,2.56h.82V1.59Zm2.46,5.64.61-1.52h-4.29l.48,1.52Z"/><path class="cls-3" d="M174.79,4.63h6.84V7h-1.52V5.87h-5.32v.88l4.56-.34.14,1.19-4.7.33v.28c0,.61.11.89.34.89h3.25a1.38,1.38,0,0,0,.74-.16,2,2,0,0,0,.43-1l1.46.41a2.2,2.2,0,0,1-.83,1.45,3,3,0,0,1-1.52.35h-3.72c-1.06,0-1.6-.38-1.6-1.17V8l-3.44.24-.07-1.18,3.51-.25v-1h-4.2V9.93a20.49,20.49,0,0,1-.4,4.19,20.44,20.44,0,0,1-1.12,3.48l-1.51-.76a17,17,0,0,0,1.09-3.11,18,18,0,0,0,.42-3.8V4.63h5.66v-3l1.39.11c.27,0,.41.1.41.23s-.11.21-.29.35v.48h5.32v1h-5.32ZM179.68,11v3.18c0,.23.2.33.57.33.21,0,.36,0,.43-.15a2.83,2.83,0,0,0,.19-.94l1.24.2a3.16,3.16,0,0,1-.55,1.81,1.87,1.87,0,0,1-1.31.32c-.92,0-1.46-.17-1.64-.47a1.5,1.5,0,0,1-.23-.9V12.2h-1.2a7.52,7.52,0,0,1-.31,2.13,5.64,5.64,0,0,1-.82,1.54,35.1,35.1,0,0,0,4.4.2h1.87l-.69,1.53a44.38,44.38,0,0,1-5.35-.25,9.79,9.79,0,0,1-2.49-.62,7.24,7.24,0,0,1-.88-.48,10.3,10.3,0,0,1-3.15,1.56l-1.18-1.26a8.92,8.92,0,0,0,3.18-1.25,5.31,5.31,0,0,1-.89-1.31c-.19.36-.38.69-.56,1L169,14.15A10.65,10.65,0,0,0,170.2,12a15.37,15.37,0,0,0,.87-2.87l1.45.48c.13.05.21.12.21.22s-.18.13-.5.2c-.07.32-.14.62-.21.91h3.26A8.13,8.13,0,0,1,174,15.25a4.36,4.36,0,0,0,1.1.4.74.74,0,0,0,.26.07l-.52-.4a4.13,4.13,0,0,0,.87-1.43,11.44,11.44,0,0,0,.23-2.92Zm-6.9,3.44a4.58,4.58,0,0,0,1-2.34h-2.07c-.07.19-.12.37-.17.51a7.57,7.57,0,0,0,1.27,1.83"/><path class="cls-3" d="M44.41,22.23a1,1,0,0,0-.94-.56.87.87,0,0,0-.87.89c0,.49.46.69.84.87l.88.46a1,1,0,0,1,.53.93,1.45,1.45,0,0,1-2.82.34l.26-.11a1.19,1.19,0,0,0,1.12.84,1.13,1.13,0,0,0,1.15-1.1c0-.52-.54-.75-.94-.94l-.84-.44a1,1,0,0,1-.48-.84,1.13,1.13,0,0,1,1.19-1.17,1.32,1.32,0,0,1,1.14.65Z"/><polygon class="cls-3" points="49.51 22.26 49.49 22.26 47.87 26.25 46.26 22.26 46.25 22.26 45.45 26.1 45.17 26.1 46.17 21.31 47.87 25.53 49.59 21.31 50.59 26.1 50.3 26.1 49.51 22.26"/><path class="cls-3" d="M51.59,24.57,51,26.1h-.3l1.94-4.79,2,4.79h-.3l-.62-1.53Zm1-2.51L51.7,24.3h1.82Z"/><polygon class="cls-3" points="55.38 25.83 56.56 25.83 56.56 26.1 55.08 26.1 55.08 21.46 55.38 21.46 55.38 25.83"/><polygon class="cls-3" points="57.39 25.83 58.57 25.83 58.57 26.1 57.1 26.1 57.1 21.46 57.39 21.46 57.39 25.83"/><path class="cls-3" d="M61.47,24.57l-.62,1.53h-.3l2-4.79,1.94,4.79h-.31l-.62-1.53Zm1-2.51-.91,2.24H63.4Z"/><polygon class="cls-3" points="69.16 26.25 65.26 22.11 65.26 26.1 64.96 26.1 64.96 21.4 68.86 25.51 68.86 21.46 69.16 21.46 69.16 26.25"/><path class="cls-3" d="M70.15,21.46H71a2.26,2.26,0,0,1,1.72.59,2.4,2.4,0,0,1,0,3.44A2.29,2.29,0,0,1,71,26.1h-.84ZM71,25.83a2,2,0,0,0,2.18-2A2,2,0,0,0,71,21.74h-.53v4.09Z"/><polygon class="cls-3" points="79.97 22.26 79.95 22.26 78.33 26.25 76.72 22.26 76.71 22.26 75.91 26.1 75.64 26.1 76.63 21.31 78.33 25.53 80.05 21.31 81.05 26.1 80.76 26.1 79.97 22.26"/><polygon class="cls-3" points="81.89 21.74 81.89 23.43 83.77 23.43 83.77 23.7 81.89 23.7 81.89 25.83 83.82 25.83 83.82 26.1 81.6 26.1 81.6 21.46 83.82 21.46 83.82 21.74 81.89 21.74"/><path class="cls-3" d="M84.72,21.46h.83a2.3,2.3,0,0,1,1.73.59A2.32,2.32,0,0,1,88,23.79a2.37,2.37,0,0,1-.71,1.7,2.31,2.31,0,0,1-1.76.61h-.83Zm.83,4.37a2.05,2.05,0,0,0,1.56-.57,2.1,2.1,0,0,0-.06-3,2,2,0,0,0-1.5-.5H85v4.09Z"/><rect class="cls-3" x="88.73" y="21.46" width="0.3" height="4.64"/><path class="cls-3" d="M92.84,21.46h.29v2.89a1.81,1.81,0,0,1-.31,1.27,1.72,1.72,0,0,1-2.52,0A1.77,1.77,0,0,1,90,24.35V21.46h.29v2.81a1.83,1.83,0,0,0,.25,1.17,1.43,1.43,0,0,0,2.08,0,1.89,1.89,0,0,0,.24-1.17Z"/><polygon class="cls-3" points="97.98 22.26 97.97 22.26 96.35 26.25 94.73 22.26 94.72 22.26 93.93 26.1 93.64 26.1 94.64 21.31 96.35 25.53 98.06 21.31 99.06 26.1 98.78 26.1 97.98 22.26"/><polygon class="cls-3" points="101.82 21.74 101.82 23.43 103.69 23.43 103.69 23.7 101.82 23.7 101.82 25.83 103.74 25.83 103.74 26.1 101.52 26.1 101.52 21.46 103.74 21.46 103.74 21.74 101.82 21.74"/><polygon class="cls-3" points="108.83 26.25 104.94 22.11 104.94 26.1 104.64 26.1 104.64 21.4 108.54 25.51 108.54 21.46 108.83 21.46 108.83 26.25"/><polygon class="cls-3" points="110.87 26.1 110.57 26.1 110.57 21.74 109.37 21.74 109.37 21.46 112.06 21.46 112.06 21.74 110.87 21.74 110.87 26.1"/><polygon class="cls-3" points="112.89 21.74 112.89 23.43 114.77 23.43 114.77 23.7 112.89 23.7 112.89 25.83 114.82 25.83 114.82 26.1 112.6 26.1 112.6 21.46 114.82 21.46 114.82 21.74 112.89 21.74"/><path class="cls-3" d="M118,26.1h-.34l-1.51-2.2H116v2.2h-.29V21.46h.58a1.76,1.76,0,0,1,1.06.23,1.19,1.19,0,0,1,.47,1,1.17,1.17,0,0,1-1.33,1.21Zm-1.63-2.47a1.2,1.2,0,0,0,.82-.22.94.94,0,0,0,.32-.73.89.89,0,0,0-.49-.84,1.94,1.94,0,0,0-.83-.1H116v1.89Z"/><path class="cls-3" d="M119,26.1h-.3V21.46h.82a1.49,1.49,0,0,1,1,.27,1.24,1.24,0,0,1,.42.95,1.2,1.2,0,0,1-.39.92,1.58,1.58,0,0,1-1,.3H119Zm.54-2.48a1.09,1.09,0,0,0,.81-.25.92.92,0,0,0,.3-.7,1,1,0,0,0-.35-.75,1.27,1.27,0,0,0-.81-.18H119v1.88Z"/><path class="cls-3" d="M123.93,26.1h-.34l-1.52-2.2h-.14v2.2h-.3V21.46h.58a1.76,1.76,0,0,1,1.06.23,1.24,1.24,0,0,1-.86,2.21Zm-1.63-2.47a1.16,1.16,0,0,0,.81-.22.91.91,0,0,0,.33-.73.89.89,0,0,0-.49-.84,1.94,1.94,0,0,0-.83-.1h-.19v1.89Z"/><rect class="cls-3" x="124.64" y="21.46" width="0.29" height="4.64"/><path class="cls-3" d="M128.08,22.23a1.07,1.07,0,0,0-1-.56.88.88,0,0,0-.87.89c0,.49.46.69.84.87l.89.46a1.05,1.05,0,0,1,.53.93,1.43,1.43,0,0,1-1.46,1.35,1.41,1.41,0,0,1-1.36-1l.26-.11a1.17,1.17,0,0,0,1.11.84,1.13,1.13,0,0,0,1.15-1.1c0-.52-.53-.75-.94-.94l-.83-.44a1,1,0,0,1-.49-.84,1.13,1.13,0,0,1,1.19-1.17,1.31,1.31,0,0,1,1.14.65Z"/><polygon class="cls-3" points="129.57 21.74 129.57 23.43 131.44 23.43 131.44 23.7 129.57 23.7 129.57 25.83 131.5 25.83 131.5 26.1 129.28 26.1 129.28 21.46 131.5 21.46 131.5 21.74 129.57 21.74"/><path class="cls-3" d="M134.76,24.57l-.62,1.53h-.3l1.94-4.79,1.95,4.79h-.3l-.63-1.53Zm1-2.51-.9,2.24h1.81Z"/><path class="cls-3" d="M138.25,21.46h.84a2.3,2.3,0,0,1,1.73.59,2.39,2.39,0,0,1,0,3.44,2.29,2.29,0,0,1-1.75.61h-.84Zm.83,4.37a2.05,2.05,0,1,0,0-4.09h-.53v4.09Z"/><polygon class="cls-3" points="146.16 22.26 146.15 22.26 144.53 26.25 142.92 22.26 142.9 22.26 142.11 26.1 141.83 26.1 142.82 21.31 144.53 25.53 146.24 21.31 147.24 26.1 146.96 26.1 146.16 22.26"/><rect class="cls-3" x="147.79" y="21.46" width="0.3" height="4.64"/><polygon class="cls-3" points="153.28 26.25 149.38 22.11 149.38 26.1 149.09 26.1 149.09 21.4 152.98 25.51 152.98 21.46 153.28 21.46 153.28 26.25"/><rect class="cls-3" x="154.27" y="21.46" width="0.3" height="4.64"/><path class="cls-3" d="M157.71,22.23a1,1,0,0,0-.94-.56.87.87,0,0,0-.87.89c0,.49.46.69.84.87l.88.46a1,1,0,0,1,.53.93,1.45,1.45,0,0,1-2.82.34l.26-.11a1.19,1.19,0,0,0,1.12.84,1.13,1.13,0,0,0,1.15-1.1c0-.52-.54-.75-1-.94l-.83-.44a1,1,0,0,1-.48-.84,1.13,1.13,0,0,1,1.19-1.17,1.29,1.29,0,0,1,1.13.65Z"/><polygon class="cls-3" points="159.95 26.1 159.66 26.1 159.66 21.74 158.45 21.74 158.45 21.46 161.15 21.46 161.15 21.74 159.95 21.74 159.95 26.1"/><path class="cls-3" d="M164,26.1h-.34l-1.51-2.2H162v2.2h-.3V21.46h.58a1.75,1.75,0,0,1,1.06.23,1.19,1.19,0,0,1,.47,1,1.16,1.16,0,0,1-1.33,1.21Zm-1.62-2.47a1.18,1.18,0,0,0,.81-.22,1,1,0,0,0,.33-.73.9.9,0,0,0-.5-.84,1.92,1.92,0,0,0-.83-.1H162v1.89Z"/><path class="cls-3" d="M165.14,24.57l-.62,1.53h-.3l1.94-4.79,2,4.79h-.31l-.62-1.53Zm1-2.51-.91,2.24h1.82Z"/><polygon class="cls-3" points="169.18 26.1 168.88 26.1 168.88 21.74 167.68 21.74 167.68 21.46 170.38 21.46 170.38 21.74 169.18 21.74 169.18 26.1"/><rect class="cls-3" x="170.91" y="21.46" width="0.3" height="4.64"/><path class="cls-3" d="M176.74,23.79a2.41,2.41,0,1,1-2.41-2.39,2.42,2.42,0,0,1,2.41,2.39m-4.52,0a2.12,2.12,0,0,0,4.23,0,2.12,2.12,0,1,0-4.23,0"/><polygon class="cls-3" points="181.65 26.25 177.76 22.11 177.76 26.1 177.46 26.1 177.46 21.4 181.36 25.51 181.36 21.46 181.65 21.46 181.65 26.25"/><polygon class="cls-3" points="46.16 29.65 46.15 29.65 44.52 33.65 42.91 29.65 42.9 29.65 42.1 33.49 41.82 33.49 42.82 28.7 44.52 32.92 46.23 28.7 47.23 33.49 46.95 33.49 46.16 29.65"/><rect class="cls-3" x="47.79" y="28.85" width="0.29" height="4.64"/><polygon class="cls-3" points="53.27 33.65 49.37 29.5 49.37 33.49 49.08 33.49 49.08 28.79 52.98 32.9 52.98 28.85 53.27 28.85 53.27 33.65"/><rect class="cls-3" x="54.27" y="28.85" width="0.29" height="4.64"/><path class="cls-3" d="M57.71,29.61a1.06,1.06,0,0,0-.94-.55.88.88,0,0,0-.88.9c0,.48.46.68.84.86l.89.46a1,1,0,0,1,.53.93,1.45,1.45,0,0,1-2.82.35l.26-.12a1.19,1.19,0,0,0,1.12.84,1.13,1.13,0,0,0,1.15-1.1c0-.52-.54-.74-.94-.94l-.84-.44A.93.93,0,0,1,55.6,30a1.14,1.14,0,0,1,1.19-1.19,1.31,1.31,0,0,1,1.13.66Z"/><polygon class="cls-3" points="59.95 33.49 59.65 33.49 59.65 29.13 58.45 29.13 58.45 28.85 61.15 28.85 61.15 29.13 59.95 29.13 59.95 33.49"/><path class="cls-3" d="M64,33.49h-.34L62.13,31.3H62v2.19h-.3V28.85h.58a1.75,1.75,0,0,1,1.06.23,1.25,1.25,0,0,1-.86,2.22ZM62.35,31a1.18,1.18,0,0,0,.82-.21.92.92,0,0,0,.32-.73.89.89,0,0,0-.49-.84,1.94,1.94,0,0,0-.83-.1H62V31Z"/><polygon class="cls-3" points="64.09 28.85 64.42 28.85 65.78 31.2 67.15 28.85 67.48 28.85 65.94 31.51 65.94 33.49 65.63 33.49 65.63 31.51 64.09 28.85"/><path class="cls-3" d="M74.45,31.17A2.41,2.41,0,1,1,72,28.79a2.42,2.42,0,0,1,2.41,2.38m-4.51,0A2.11,2.11,0,1,0,72,29.06a2.12,2.12,0,0,0-2.1,2.11"/><polygon class="cls-3" points="75.47 29.13 75.47 30.82 77 30.82 77 31.09 75.47 31.09 75.47 33.49 75.17 33.49 75.17 28.85 77.04 28.85 77.04 29.13 75.47 29.13"/><polygon class="cls-3" points="80.11 29.13 80.11 30.82 81.98 30.82 81.98 31.09 80.11 31.09 80.11 33.21 82.03 33.21 82.03 33.49 79.81 33.49 79.81 28.85 82.03 28.85 82.03 29.13 80.11 29.13"/><path class="cls-3" d="M86.62,29.79a2.14,2.14,0,0,0-1.56-.73A2.17,2.17,0,0,0,83,31.2a2,2,0,0,0,.63,1.44,2.23,2.23,0,0,0,1.48.64,2.19,2.19,0,0,0,1.56-.71V33a2.39,2.39,0,0,1-1.54.59,2.39,2.39,0,1,1,0-4.78,2.32,2.32,0,0,1,1.54.61Z"/><path class="cls-3" d="M92,31.17a2.41,2.41,0,1,1-2.42-2.38A2.43,2.43,0,0,1,92,31.17m-4.53,0a2.12,2.12,0,1,0,2.11-2.11,2.13,2.13,0,0,0-2.11,2.11"/><polygon class="cls-3" points="96.94 33.65 93.04 29.5 93.04 33.49 92.74 33.49 92.74 28.79 96.64 32.9 96.64 28.85 96.94 28.85 96.94 33.65"/><path class="cls-3" d="M102.47,31.17a2.41,2.41,0,1,1-2.41-2.38,2.42,2.42,0,0,1,2.41,2.38m-4.52,0a2.12,2.12,0,0,0,2.11,2.11A2.11,2.11,0,1,0,98,31.17"/><polygon class="cls-3" points="107.08 29.65 107.07 29.65 105.45 33.65 103.84 29.65 103.82 29.65 103.03 33.49 102.75 33.49 103.74 28.7 105.45 32.92 107.16 28.7 108.16 33.49 107.88 33.49 107.08 29.65"/><rect class="cls-3" x="108.71" y="28.85" width="0.3" height="4.64"/><path class="cls-3" d="M113.69,29.79a2.13,2.13,0,0,0-1.55-.73A2.17,2.17,0,0,0,110,31.2a2.08,2.08,0,0,0,.62,1.44,2.27,2.27,0,0,0,1.5.64,2.19,2.19,0,0,0,1.55-.71V33a2.37,2.37,0,0,1-1.55.59,2.39,2.39,0,1,1,0-4.78,2.3,2.3,0,0,1,1.54.61Z"/><path class="cls-3" d="M116.92,32l-.63,1.53H116l2-4.79,1.94,4.79h-.3L119,32Zm1-2.51L117,31.69h1.82Z"/><polygon class="cls-3" points="120.7 29.13 120.7 30.82 122.24 30.82 122.24 31.09 120.7 31.09 120.7 33.49 120.4 33.49 120.4 28.85 122.28 28.85 122.28 29.13 120.7 29.13"/><polygon class="cls-3" points="123.44 29.13 123.44 30.82 124.97 30.82 124.97 31.09 123.44 31.09 123.44 33.49 123.14 33.49 123.14 28.85 125.01 28.85 125.01 29.13 123.44 29.13"/><path class="cls-3" d="M126,32l-.63,1.53H125L127,28.7l1.94,4.79h-.3L128,32Zm1-2.51-.91,2.24h1.81Z"/><rect class="cls-3" x="129.45" y="28.85" width="0.29" height="4.64"/><path class="cls-3" d="M133,33.49h-.34l-1.51-2.19H131v2.19h-.3V28.85h.58a1.76,1.76,0,0,1,1.06.23,1.25,1.25,0,0,1-.86,2.22ZM131.41,31a1.2,1.2,0,0,0,.82-.21.93.93,0,0,0,.33-.73.9.9,0,0,0-.5-.84,1.94,1.94,0,0,0-.83-.1H131V31Z"/><path class="cls-3" d="M135.89,29.61a1.06,1.06,0,0,0-.94-.55.87.87,0,0,0-.87.9c0,.48.46.68.84.86l.89.46a1,1,0,0,1,.53.93,1.45,1.45,0,0,1-2.83.35l.26-.12a1.19,1.19,0,0,0,1.12.84,1.13,1.13,0,0,0,1.15-1.1c0-.52-.54-.74-.94-.94l-.84-.44a.93.93,0,0,1-.48-.83A1.14,1.14,0,0,1,135,28.78a1.3,1.3,0,0,1,1.13.66Z"/></g></g></svg>