<svg xmlns="http://www.w3.org/2000/svg" viewBox="0 0 131.16 42.52"><defs><style>.cls-1,.cls-9{fill:#4b679a;}.cls-1,.cls-2,.cls-3,.cls-4,.cls-5,.cls-6,.cls-7{stroke:#fff;}.cls-1,.cls-2,.cls-4,.cls-5,.cls-6,.cls-7{stroke-width:0.75px;}.cls-2{fill:#e7ab23;}.cls-3{fill:#8d97ac;stroke-width:0.5px;}.cls-4{fill:#284773;}.cls-5{fill:#e9a747;}.cls-6{fill:#eed079;}.cls-7{fill:#eec550;}.cls-8{fill:#4b4949;}</style></defs><g id="圖層_2" data-name="圖層 2"><g id="主協辦LOGO"><polygon class="cls-1" points="30.38 41.86 25.33 38.8 25.26 31.93 30.38 34.57 30.38 41.86"/><polygon class="cls-2" points="36.64 38.93 30.55 41.86 30.53 34.67 36.68 32.19 36.64 38.93"/><polygon class="cls-3" points="30.47 25.07 25.2 22.36 30.85 19.81 36.51 22.59 30.47 25.07"/><polygon class="cls-1" points="30.29 32.44 25.25 29.39 25.17 22.5 30.29 25.15 30.29 32.44"/><polygon class="cls-4" points="36.56 29.51 30.47 32.44 30.44 25.25 36.59 22.77 36.56 29.51"/><polygon class="cls-3" points="30.47 15.31 25.2 12.59 30.85 10.04 36.51 12.83 30.47 15.31"/><polygon class="cls-1" points="30.29 22.67 25.25 19.62 25.17 12.74 30.29 15.38 30.29 22.67"/><polygon class="cls-5" points="36.56 19.75 30.42 22.71 30.44 15.48 36.59 13.01 36.56 19.75"/><polygon class="cls-3" points="30.47 5.54 25.2 2.83 30.85 0.28 36.51 3.06 30.47 5.54"/><polygon class="cls-1" points="30.29 12.91 25.25 9.86 25.17 2.98 30.29 5.62 30.29 12.91"/><polygon class="cls-6" points="36.54 9.99 30.45 12.91 30.42 5.72 36.58 3.25 36.54 9.99"/><polygon class="cls-3" points="22.18 10.38 16.91 7.67 22.55 5.12 28.29 7.98 22.18 10.38"/><polygon class="cls-1" points="21.99 17.75 16.95 14.69 16.88 7.81 21.99 10.46 21.99 17.75"/><polygon class="cls-4" points="28.26 14.82 22.17 17.75 22.15 10.56 28.3 8.08 28.26 14.82"/><polygon class="cls-3" points="14.14 15.05 8.87 12.33 14.52 9.78 20.24 12.63 14.14 15.05"/><polygon class="cls-1" points="13.96 22.41 8.91 19.36 8.84 12.48 13.96 15.13 13.96 22.41"/><polygon class="cls-4" points="20.22 19.49 14.13 22.41 14.11 15.22 20.26 12.75 20.22 19.49"/><polygon class="cls-3" points="5.84 20.32 0.57 17.6 6.22 15.05 11.94 17.92 5.84 20.32"/><polygon class="cls-1" points="5.66 27.69 0.62 24.63 0.55 17.75 5.66 20.4 5.66 27.69"/><polygon class="cls-4" points="11.93 24.76 5.84 27.69 5.82 20.49 11.97 18.02 11.93 24.76"/><polygon class="cls-3" points="14.05 24.99 8.78 22.27 14.43 19.72 20.09 22.51 14.05 24.99"/><polygon class="cls-1" points="13.87 32.35 8.83 29.3 8.74 22.34 13.87 25.06 13.87 32.35"/><polygon class="cls-4" points="20.14 29.42 14.05 32.35 14.02 25.16 20.18 22.69 20.14 29.42"/><polygon class="cls-3" points="22 29.65 16.73 26.94 22.38 24.39 28.04 27.18 22 29.65"/><polygon class="cls-1" points="21.82 37.02 16.78 33.97 16.71 27.02 21.82 29.73 21.82 37.02"/><polygon class="cls-4" points="28.09 34.09 22 37.02 21.98 29.83 28.13 27.35 28.09 34.09"/><polygon class="cls-1" points="30.52 41.78 25.47 38.73 25.4 31.85 30.52 34.49 30.52 41.78"/><polygon class="cls-3" points="30.56 34.49 25.29 31.78 30.93 29.23 36.59 32.01 30.56 34.49"/><polygon class="cls-1" points="30.29 32.44 25.25 29.39 25.17 22.5 30.29 25.15 30.29 32.44"/><polygon class="cls-7" points="36.56 29.51 30.41 32.45 30.44 25.25 36.59 22.77 36.56 29.51"/><path class="cls-8" d="M43.89,5h1.68V7.38H45V7.14H43.89V8.61H43.3V7.14h-1V7.4h-.57V5H43.3V4.2l.72,0s0,.07-.13.09ZM42.25,6.59h1v-1h-1Zm1.64,0H45v-1H43.89Z"/><path class="cls-8" d="M46.39,4.4h4V8.63h-.55V8.44H46.93v.19h-.54Zm.54,3.53h2.94v-3h-.59a1.4,1.4,0,0,1,.4.27l-.19.2h.23v.4h-.86c0,.25.06.49.09.7a2.78,2.78,0,0,0,.21-.57l.51.12s-.05.06-.11.06a3.69,3.69,0,0,1-.45,1c.06.15.15.27.23.27s.08-.19.11-.43a2.12,2.12,0,0,0,.34.27c-.06.45-.22.66-.44.66a.45.45,0,0,1-.19-.05.65.65,0,0,1-.37-.33,2.39,2.39,0,0,1-.52.42A2.78,2.78,0,0,0,48,7.53l.2-.13-.94.17a.12.12,0,0,1-.07.07L47,7.18,48.37,7v.24A2.83,2.83,0,0,0,48.62,7a6.53,6.53,0,0,1-.21-1.23H47.1v-.4h1.28c0-.13,0-.27,0-.4L49,5s-.05.08-.12.09a2.81,2.81,0,0,0,0,.29h.51A2.31,2.31,0,0,0,49,5.13l.22-.22H46.93ZM48.27,6v.9H47.22V6Zm-.38.6v-.3h-.31v.3Z"/><path class="cls-8" d="M55.37,5.5h-.91l.33.11a.18.18,0,0,1-.15.06,5,5,0,0,1-1,1.61,4.5,4.5,0,0,0,1.79.77,3.24,3.24,0,0,0-.4.57,4.59,4.59,0,0,1-1.88-.91,5.3,5.3,0,0,1-1.86.91A3.17,3.17,0,0,0,51,8.1a4.86,4.86,0,0,0,1.75-.8,5.53,5.53,0,0,1-1-1.71L52,5.5h-1V5h1.85V4.2l.7,0s0,.07-.12.09V5h1.88Zm-3,0a3.9,3.9,0,0,0,.89,1.39,4,4,0,0,0,.85-1.39Z"/><path class="cls-8" d="M56.49,8.62V6.22A7,7,0,0,1,56,6.8a3.49,3.49,0,0,0-.29-.58,5.61,5.61,0,0,0,1.18-2l.66.22a.13.13,0,0,1-.14.06c-.13.3-.27.6-.42.89l.18.05s0,.08-.12.09V8.62Zm2-.91c0,.28,0,.32.26.32h.69c.23,0,.27-.16.3-.82a1.81,1.81,0,0,0,.53.24c-.07.81-.22,1.11-.78,1.11h-.81c-.59,0-.76-.19-.76-.86V4.31l.69,0s0,.08-.12.1V6a8.92,8.92,0,0,0,1.22-.85l.44.52a.22.22,0,0,1-.13,0,10.68,10.68,0,0,1-1.53.88Z"/><path class="cls-8" d="M64.88,6.05H63.2a2.77,2.77,0,0,0,1.79,2,2.35,2.35,0,0,0-.41.53,3,3,0,0,1-1.78-1.9A3,3,0,0,1,61,8.62a1.73,1.73,0,0,0-.41-.49,2.62,2.62,0,0,0,1.74-2.08H60.7V5.47h1.73c0-.42,0-.85,0-1.27l.74,0s-.05.08-.13.1c0,.36,0,.74,0,1.12h1.84Z"/><path class="cls-8" d="M69.4,4.35c0,.5-.06,1.1-.11,1.54h.35v1h-.55V6.3h-3v.56h-.53v-1h.36l-.09-1.48.31.06c.22-.07.47-.17.63-.24l.31.35L67,4.6h0l-.6.18v.1H67v.35h-.61v.16H67v.24a2.79,2.79,0,0,0,.33-.19,1.74,1.74,0,0,0-.26-.15l.26-.22c.09,0,.18.1.27.15A1.57,1.57,0,0,0,67.76,5l.43.15a.11.11,0,0,1-.1,0l-.2.2.25.19-.28.24a2,2,0,0,0-.25-.2,2.44,2.44,0,0,1-.41.24L67,5.68v.05h-.59v.16h2.36V5.73h-.56V5.38h.59l0-.16h-.6V4.87h.62V4.71H68.2V4.35Zm-.92,2.12.4.27a.23.23,0,0,1-.11,0,8.35,8.35,0,0,1-.79.52h1.65v.44H67.85v.34c0,.49-.24.53-1.06.53a1.56,1.56,0,0,0-.17-.47h.58c.08,0,.1,0,.1-.08V7.75H65.52V7.31H67.3V7.09h.28a2.23,2.23,0,0,0,.3-.2H66.35V6.5H68.4Zm-.32-2.09s0,0-.11,0l-.18.19.22.17L67.82,5a1.16,1.16,0,0,0-.23-.19,3.84,3.84,0,0,1-.39.22,2,2,0,0,0-.27-.23,2.08,2.08,0,0,0,.36-.2L67,4.47l.25-.21a1.91,1.91,0,0,1,.28.15,1.29,1.29,0,0,0,.16-.18Z"/><path class="cls-8" d="M72.68,8.1a2,2,0,0,1-.8.14A1.62,1.62,0,0,1,70.2,6.43,1.72,1.72,0,0,1,72,4.54a1.67,1.67,0,0,1,.75.13l-.14.56A1.4,1.4,0,0,0,72,5.12c-.6,0-1.08.4-1.08,1.27S71.34,7.65,72,7.65a1.63,1.63,0,0,0,.59-.11Z"/><path class="cls-8" d="M75.48,8.19h-.69V6.68c0-.33-.1-.59-.4-.59a.46.46,0,0,0-.44.52V8.19h-.7V4.42H74V5.89h0a.87.87,0,0,1,.7-.37c.47,0,.83.34.83,1.11Z"/><path class="cls-8" d="M76.55,5.24a.36.36,0,0,1-.37-.37.37.37,0,1,1,.74,0A.36.36,0,0,1,76.55,5.24Zm.35,2.95h-.69V5.58h.69Z"/><path class="cls-8" d="M79.86,8.19h-.69V6.67c0-.32-.11-.58-.4-.58a.48.48,0,0,0-.45.55V8.19h-.69V6.37c0-.31,0-.56,0-.79h.6l0,.36h0A.86.86,0,0,1,79,5.53c.48,0,.85.33.85,1.06Z"/><path class="cls-8" d="M82.55,8.09a2.25,2.25,0,0,1-.84.15,1.18,1.18,0,0,1-1.26-1.32,1.26,1.26,0,0,1,1.19-1.4c.63,0,1,.45,1,1.3a2.18,2.18,0,0,1,0,.27H81.11a.62.62,0,0,0,.71.63,1.83,1.83,0,0,0,.63-.11ZM82,6.61c0-.27-.1-.6-.44-.6s-.48.34-.49.6Z"/><path class="cls-8" d="M84.65,6.16A1,1,0,0,0,84.16,6c-.22,0-.33.11-.33.25s.1.22.4.34.65.44.65.8-.38.83-1,.83a1.43,1.43,0,0,1-.73-.18l.13-.5a1.33,1.33,0,0,0,.61.17c.24,0,.36-.1.36-.26s-.09-.24-.38-.36c-.49-.2-.66-.48-.66-.76a.86.86,0,0,1,.95-.83,1.42,1.42,0,0,1,.65.15Z"/><path class="cls-8" d="M87.42,8.09a2.25,2.25,0,0,1-.84.15,1.19,1.19,0,0,1-1.26-1.32,1.26,1.26,0,0,1,1.19-1.4c.63,0,1,.45,1,1.3a2,2,0,0,1,0,.27H86a.63.63,0,0,0,.71.63,1.94,1.94,0,0,0,.64-.11Zm-.51-1.48c0-.27-.1-.6-.44-.6s-.47.34-.49.6Z"/><path class="cls-8" d="M91.6,8.1a1.87,1.87,0,0,1-.79.14,1.62,1.62,0,0,1-1.69-1.81,1.72,1.72,0,0,1,1.77-1.89,1.62,1.62,0,0,1,.74.13l-.13.56a1.46,1.46,0,0,0-.58-.11c-.59,0-1.07.4-1.07,1.27s.42,1.26,1.07,1.26a1.62,1.62,0,0,0,.58-.11Z"/><path class="cls-8" d="M94.38,7.39c0,.31,0,.58,0,.8h-.6l0-.35h0a.86.86,0,0,1-.75.4c-.49,0-.83-.32-.83-1.11V5.58h.69V7c0,.4.11.64.4.64a.45.45,0,0,0,.43-.48V5.58h.69Z"/><path class="cls-8" d="M95.81,8.19h-.7V4.42h.7Z"/><path class="cls-8" d="M96.65,5.1l.68-.2v.68h.58v.51h-.58V7.22c0,.32.1.45.31.45l.23,0v.52a1.33,1.33,0,0,1-.47.07c-.75,0-.76-.66-.76-1V6.09h-.34V5.58h.34Z"/><path class="cls-8" d="M100.65,7.39c0,.31,0,.58,0,.8h-.6l0-.35h0a.85.85,0,0,1-.75.4c-.49,0-.83-.32-.83-1.11V5.58h.69V7c0,.4.12.64.4.64a.45.45,0,0,0,.43-.48V5.58h.69Z"/><path class="cls-8" d="M102.81,6.2l-.18,0c-.31,0-.55.21-.55.66V8.19h-.69V6.39c0-.32,0-.58,0-.81H102L102,6h0a.73.73,0,0,1,.65-.51l.15,0Z"/><path class="cls-8" d="M105.27,8.09a2.29,2.29,0,0,1-.84.15,1.19,1.19,0,0,1-1.27-1.32,1.26,1.26,0,0,1,1.2-1.4c.63,0,1,.45,1,1.3a2,2,0,0,1,0,.27h-1.56a.63.63,0,0,0,.71.63,1.94,1.94,0,0,0,.64-.11Zm-.51-1.48c0-.27-.1-.6-.45-.6s-.47.34-.49.6Z"/><path class="cls-8" d="M109.72,6.69c0,1.06-.5,1.55-1.31,1.55s-1.27-.48-1.27-1.54V4.58h.69V6.76c0,.63.24.91.6.91s.6-.27.6-.91V4.58h.69Z"/><path class="cls-8" d="M112.72,8.19H112V6.67c0-.32-.1-.58-.4-.58s-.44.15-.44.55V8.19h-.69V6.37c0-.31,0-.56,0-.79h.6l0,.36h0a.88.88,0,0,1,.76-.41c.48,0,.85.33.85,1.06Z"/><path class="cls-8" d="M113.78,5.24a.37.37,0,1,1,.38-.37A.36.36,0,0,1,113.78,5.24Zm.35,2.95h-.69V5.58h.69Z"/><path class="cls-8" d="M117,5.58l-.89,2.61h-.67l-.87-2.61h.74l.34,1.26c.06.23.11.44.15.67h0c0-.23.09-.44.15-.67l.33-1.26Z"/><path class="cls-8" d="M119.47,8.09a2.29,2.29,0,0,1-.84.15,1.19,1.19,0,0,1-1.27-1.32,1.26,1.26,0,0,1,1.2-1.4c.63,0,1,.45,1,1.3a1.1,1.1,0,0,1,0,.27H118a.63.63,0,0,0,.71.63,1.94,1.94,0,0,0,.64-.11ZM119,6.61c0-.27-.1-.6-.45-.6s-.47.34-.49.6Z"/><path class="cls-8" d="M121.61,6.2l-.17,0c-.32,0-.56.21-.56.66V8.19h-.69V6.39c0-.32,0-.58,0-.81h.6l0,.45h0a.75.75,0,0,1,.65-.51l.15,0Z"/><path class="cls-8" d="M123.48,6.16A1,1,0,0,0,123,6c-.21,0-.33.11-.33.25s.1.22.4.34.65.44.65.8-.38.83-1,.83a1.43,1.43,0,0,1-.73-.18l.13-.5a1.33,1.33,0,0,0,.61.17c.24,0,.36-.1.36-.26s-.09-.24-.38-.36c-.48-.2-.66-.48-.66-.76a.86.86,0,0,1,.95-.83,1.42,1.42,0,0,1,.65.15Z"/><path class="cls-8" d="M124.63,5.24a.36.36,0,0,1-.37-.37.38.38,0,0,1,.75,0A.36.36,0,0,1,124.63,5.24ZM125,8.19h-.69V5.58H125Z"/><path class="cls-8" d="M125.82,5.1l.69-.2v.68h.57v.51h-.57V7.22c0,.32.1.45.31.45l.22,0v.52a1.26,1.26,0,0,1-.46.07c-.75,0-.77-.66-.77-1V6.09h-.34V5.58h.34Z"/><path class="cls-8" d="M129.78,5.58l-.59,1.81a4.2,4.2,0,0,1-.8,1.6,1.32,1.32,0,0,1-.68.36l-.17-.58a1.4,1.4,0,0,0,.36-.19.93.93,0,0,0,.35-.49.36.36,0,0,0,0-.11l-.87-2.4h.76l.38,1.36c0,.16.09.34.12.49h0c0-.14.07-.32.1-.49l.33-1.36Z"/><path class="cls-8" d="M49.34,17.61H45.23v-.67a17.42,17.42,0,0,1-1.49,1.31h7v5.52H45l-.11.67H51v4.77H49.2v-.47h-3v.54H44.44v-3A8.65,8.65,0,0,1,43.07,29a7.34,7.34,0,0,0-1.41-1.27c1.57-2,1.74-4.88,1.74-6.88V18.5c-.21.16-.44.32-.67.47a6,6,0,0,0-1.12-1.59,12.81,12.81,0,0,0,4.48-4.62l2.32.42a.43.43,0,0,1-.44.28l0,0a24.61,24.61,0,0,1,3.65,2.56l-1.14,1.58a11.87,11.87,0,0,0-1.12-1Zm-4.16,4c0,.23,0,.45,0,.68h3.69v-.68Zm3.65-1.92H45.19v.65h3.64Zm-.12-3.53c-.57-.42-1.18-.84-1.76-1.21-.3.4-.63.81-1,1.21ZM49.2,26h-3v1.26h3Zm5-10.93c0,.18-.14.26-.46.33v9.51h-2v-10Zm1.42-1.93,2.51.1c0,.18-.14.3-.45.36V26.79c0,2-.67,2.51-4.24,2.51a8.29,8.29,0,0,0-.68-2.14c1.05,0,2.09,0,2.42,0s.44-.1.44-.42Z"/><path class="cls-8" d="M65.22,23.44v.26c.56.33,2.17,1.51,2.58,1.83L66.6,27c-.31-.35-.84-.88-1.38-1.39v3.67h-2V26A11.67,11.67,0,0,1,61,28.25a8.42,8.42,0,0,0-1.37-1.49,11.33,11.33,0,0,0,3.17-3.32H60.12V21.66h3.06V20.38H59.91V18.64h1.74a9,9,0,0,0-.6-2l1.14-.33H60.26V14.57h2.92V12.76l2.49.12c0,.18-.14.28-.45.33v1.36h2.86v1.72H66.32l1.42.37c0,.12-.19.19-.43.21a15.31,15.31,0,0,1-.83,1.77h2v1.74H65.6a.61.61,0,0,1-.38.16v1.12h3v1.78Zm-.53-4.82a21.2,21.2,0,0,0,.77-2.33H62.74a9.21,9.21,0,0,1,.68,2.32l-.1,0h1.42Zm11.75,0v1.95H74.73v8.76h-2V20.56H70.92c0,2.59-.38,6.37-2.75,8.79a5,5,0,0,0-1.5-1.44c2.06-2.14,2.25-5.11,2.25-7.48V14.37l1.09.32a19,19,0,0,0,4.29-1.91l2,1.51c-.1.1-.28.1-.49.1a27.14,27.14,0,0,1-4.87,1.83v2.39Z"/><path class="cls-8" d="M94.23,14.34v1.84H90.61a25.27,25.27,0,0,1,3.5,3l-1.86,1.2a9.19,9.19,0,0,0-1-1.07c-4.13.19-8.41.36-11.24.44a.4.4,0,0,1-.31.28l-.81-2.22h2.33a17.94,17.94,0,0,0,1.09-1.64h-4V14.34h6.85v-1.6l2.64.14c0,.18-.14.28-.46.33v1.13Zm-2.65,6.13v6.88c0,1.76-.79,2-4.18,1.95a7.65,7.65,0,0,0-.63-1.67c.51,0,1.14,0,1.59,0,1,0,1.08,0,1.08-.35v-.67H83v2.67H80.9V20.47Zm-2.14,1.7H83v.77h6.41Zm-6.41,3h6.41v-.81H83Zm5.88-9H85.29a.51.51,0,0,1-.47.2c-.32.42-.74.93-1.16,1.4,1.81,0,3.79-.05,5.76-.1-.44-.36-.9-.71-1.32-1Z"/><path class="cls-8" d="M107.1,17.61a37.55,37.55,0,0,0,.78,5,17.84,17.84,0,0,0,1.72-4l2.42.68c0,.16-.21.27-.49.25a20.84,20.84,0,0,1-2.86,5.65c.51,1.29,1.1,2.08,1.72,2.08.44,0,.68-.93.79-3.16a5.14,5.14,0,0,0,1.7,1.19c-.35,3.27-1,4.06-2.67,4.06-1.23,0-2.23-.92-3-2.39a14.61,14.61,0,0,1-3,2.42,14,14,0,0,0-1.39-1.65,12.5,12.5,0,0,0,3.53-2.9A32.79,32.79,0,0,1,105,17.61h-5.3v1.77h3.41l1.09,0v.64c-.07,4-.18,5.55-.58,6.09s-1,.81-3.25.76A5,5,0,0,0,99.8,25c.65.05,1.25.07,1.53.07a.65.65,0,0,0,.52-.21c.2-.25.27-1.16.32-3.5H99.71c-.07,2.56-.47,5.92-2.09,8A8.12,8.12,0,0,0,96,28c1.53-2.06,1.65-5.08,1.65-7.36v-5h7.25c-.05-.94-.08-1.88-.08-2.81l2.65.14c0,.19-.18.29-.51.35,0,.77,0,1.54,0,2.32h3A17.55,17.55,0,0,0,107.74,14l1.31-1.22a14.87,14.87,0,0,1,2.73,1.91l-.92.9h1.53v2Z"/><path class="cls-8" d="M119.43,19.27a19.93,19.93,0,0,0,.9-2.93l2.2.6a.47.47,0,0,1-.46.21,21.86,21.86,0,0,1-.88,2.23h2.16v1.91H114.2V19.38h5.59Zm3.69-4.76v1.83h-8.53V14.51h3.23V12.76l2.51.12c0,.18-.14.28-.46.33v1.3Zm-7.9,14.83V22.45h7.32v6.82h-2.05v-.79h-3.32v.86Zm1-10a10.53,10.53,0,0,0-.59-2.51l1.68-.35A8.83,8.83,0,0,1,118,19Zm4.29,4.9h-3.32v2.37h3.32Zm8.94-10.59,1.33.51a.4.4,0,0,1-.17.28c-.53,1.51-1.23,3.37-2,5.25,1.6,1.77,2.16,3,2.16,4.18,0,3.27-2.27,3.27-3.32,3.27a5.62,5.62,0,0,1-.58,0,4.67,4.67,0,0,0-.61-2c.51,0,1,0,1.3,0,1.05,0,1.15-.7,1.15-1.39,0-1-.61-2-2.21-3.74.58-1.56,1.07-3,1.48-4.32h-2V29.32h-2.07V13.76H129Z"/><path class="cls-9" d="M41.72,33.74h.86v4.5h-.86Z"/><path class="cls-9" d="M46.38,38.24h-.87v-1.9c0-.4-.13-.71-.5-.71a.59.59,0,0,0-.55.67v1.94h-.87V36c0-.38,0-.69,0-1h.75l0,.44h0a1.11,1.11,0,0,1,1-.51c.59,0,1.06.41,1.06,1.33Z"/><path class="cls-9" d="M50.11,38.24h-.87v-1.9c0-.4-.12-.71-.49-.71a.59.59,0,0,0-.56.67v1.94h-.87V36c0-.38,0-.69,0-1h.75l0,.44h0a1.1,1.1,0,0,1,.94-.51c.6,0,1.06.41,1.06,1.33Z"/><path class="cls-9" d="M53.9,36.59a1.52,1.52,0,0,1-1.52,1.72,1.5,1.5,0,0,1-1.51-1.68,1.54,1.54,0,0,1,1.55-1.72A1.5,1.5,0,0,1,53.9,36.59Zm-1.5-1c-.48,0-.65.56-.65,1.06s.22,1.06.64,1.06.64-.49.64-1.07S52.84,35.55,52.4,35.55Z"/><path class="cls-9" d="M57.42,35,56.3,38.24h-.83L54.37,35h.93l.43,1.58c.07.28.13.55.18.83h0c0-.28.11-.54.18-.83L56.52,35Z"/><path class="cls-9" d="M60.48,37.47a4.32,4.32,0,0,0,.05.77h-.78l-.06-.34h0a1.06,1.06,0,0,1-.87.41,1,1,0,0,1-1-1c0-.84.75-1.23,1.78-1.23,0-.32-.11-.57-.58-.57a1.67,1.67,0,0,0-.8.22l-.17-.56a2.3,2.3,0,0,1,1.13-.27,1.18,1.18,0,0,1,1.29,1.35Zm-.84-.81c-.47,0-1,.11-1,.58a.4.4,0,0,0,.41.45.55.55,0,0,0,.55-.57Z"/><path class="cls-9" d="M61.57,34.38l.85-.25V35h.72v.64h-.72V37c0,.39.13.55.39.55a1.14,1.14,0,0,0,.28,0v.66a1.63,1.63,0,0,1-.58.08c-.93,0-1-.81-1-1.18v-1.5h-.43V35h.43Z"/><path class="cls-9" d="M64.28,34.55a.46.46,0,0,1,0-.92.44.44,0,0,1,.47.46A.44.44,0,0,1,64.28,34.55Zm.44,3.69h-.86V35h.86Z"/><path class="cls-9" d="M68.52,36.59A1.52,1.52,0,0,1,67,38.31a1.5,1.5,0,0,1-1.51-1.68A1.54,1.54,0,0,1,67,34.91,1.5,1.5,0,0,1,68.52,36.59Zm-1.5-1c-.48,0-.65.56-.65,1.06s.22,1.06.64,1.06.63-.49.63-1.07S67.46,35.55,67,35.55Z"/><path class="cls-9" d="M72.11,38.24h-.86v-1.9c0-.4-.13-.71-.5-.71a.59.59,0,0,0-.56.67v1.94h-.86V36c0-.38,0-.69,0-1h.75l0,.44h0a1.1,1.1,0,0,1,.94-.51c.6,0,1.06.41,1.06,1.33Z"/><path class="cls-9" d="M78.1,35.74a3.32,3.32,0,0,1-.67,1.66c.21.24.45.53.73.84h-1l-.3-.34a1.74,1.74,0,0,1-1.16.41A1.27,1.27,0,0,1,74.3,37a1.44,1.44,0,0,1,.8-1.28v0a1.51,1.51,0,0,1-.34-.92A1.14,1.14,0,0,1,76,33.67a1,1,0,0,1,1.09,1c0,.45-.23.83-.87,1.19v0c.26.32.57.71.8,1a3,3,0,0,0,.33-1.14ZM76.48,37.4c-.27-.31-.64-.76-1-1.19a.9.9,0,0,0-.37.7.73.73,0,0,0,.74.76A.83.83,0,0,0,76.48,37.4Zm-1-2.65a1.08,1.08,0,0,0,.29.69c.34-.22.51-.44.51-.72s-.11-.49-.38-.49S75.53,34.49,75.53,34.75Z"/><path class="cls-9" d="M80.26,33.74h.86v4.5h-.86Z"/><path class="cls-9" d="M84.92,38.24h-.87v-1.9c0-.4-.13-.71-.5-.71a.59.59,0,0,0-.55.67v1.94h-.87V36c0-.38,0-.69,0-1h.74l.05.44h0a1.11,1.11,0,0,1,1-.51c.59,0,1.06.41,1.06,1.33Z"/><path class="cls-9" d="M88.05,38.16a2,2,0,0,1-.79.14,1.5,1.5,0,0,1-1.57-1.66,1.62,1.62,0,0,1,1.71-1.72,1.89,1.89,0,0,1,.68.12l-.14.66a1.23,1.23,0,0,0-.51-.1c-.55,0-.86.43-.86,1s.37,1,.86,1a1.31,1.31,0,0,0,.53-.11Z"/><path class="cls-9" d="M91.54,37.25c0,.38,0,.72,0,1h-.76l0-.43h0a1.08,1.08,0,0,1-.93.5c-.63,0-1-.41-1-1.39V35h.87V36.8c0,.49.14.8.5.8a.56.56,0,0,0,.53-.61V35h.87Z"/><path class="cls-9" d="M93.38,35.37a1,1,0,0,1,.9-.46c.72,0,1.2.67,1.2,1.64,0,1.18-.66,1.76-1.33,1.76a.94.94,0,0,1-.88-.52h0l0,.45h-.74c0-.23,0-.6,0-.93V33.53h.86v1.84Zm0,1.57a.63.63,0,0,0,.59.68c.42,0,.66-.4.66-1s-.22-1-.66-1a.65.65,0,0,0-.59.7Z"/><path class="cls-9" d="M98.71,37.47a4.32,4.32,0,0,0,.05.77H98l-.06-.34h0a1.06,1.06,0,0,1-.87.41,1,1,0,0,1-1-1c0-.84.75-1.23,1.78-1.23,0-.32-.11-.57-.58-.57a1.71,1.71,0,0,0-.81.22l-.16-.56a2.3,2.3,0,0,1,1.13-.27,1.18,1.18,0,0,1,1.29,1.35Zm-.84-.81c-.47,0-1,.11-1,.58a.4.4,0,0,0,.41.45.55.55,0,0,0,.55-.57Z"/><path class="cls-9" d="M99.8,34.38l.85-.25V35h.72v.64h-.72V37c0,.39.12.55.39.55a1.14,1.14,0,0,0,.28,0v.66a1.67,1.67,0,0,1-.58.08c-.94,0-1-.81-1-1.18v-1.5h-.43V35h.43Z"/><path class="cls-9" d="M102.51,34.55a.45.45,0,0,1-.46-.46.47.47,0,1,1,.46.46Zm.44,3.69h-.86V35H103Z"/><path class="cls-9" d="M106.75,36.59a1.52,1.52,0,0,1-1.52,1.72,1.5,1.5,0,0,1-1.51-1.68,1.54,1.54,0,0,1,1.55-1.72A1.5,1.5,0,0,1,106.75,36.59Zm-1.5-1c-.48,0-.65.56-.65,1.06s.22,1.06.64,1.06.63-.49.63-1.07S105.69,35.55,105.25,35.55Z"/><path class="cls-9" d="M110.34,38.24h-.87v-1.9c0-.4-.12-.71-.49-.71a.59.59,0,0,0-.56.67v1.94h-.87V36c0-.38,0-.69,0-1h.75l0,.44h0a1.1,1.1,0,0,1,.94-.51c.6,0,1.06.41,1.06,1.33Z"/><path class="cls-9" d="M115.65,38.13a2.55,2.55,0,0,1-1,.17,2,2,0,0,1-2.11-2.25,2.15,2.15,0,0,1,2.21-2.37,2.1,2.1,0,0,1,.93.17l-.17.7a1.68,1.68,0,0,0-.72-.15c-.74,0-1.34.51-1.34,1.6s.52,1.56,1.34,1.56a2,2,0,0,0,.73-.13Z"/><path class="cls-9" d="M118.87,38.11a2.7,2.7,0,0,1-1.05.19,1.48,1.48,0,0,1-1.58-1.64,1.57,1.57,0,0,1,1.49-1.75c.79,0,1.3.56,1.3,1.62a1.72,1.72,0,0,1,0,.34h-2a.79.79,0,0,0,.89.78,2.57,2.57,0,0,0,.8-.13Zm-.64-1.84c0-.34-.13-.76-.55-.76s-.59.44-.62.76Z"/><path class="cls-9" d="M122.6,38.24h-.87v-1.9c0-.4-.13-.71-.49-.71a.59.59,0,0,0-.56.67v1.94h-.87V36c0-.38,0-.69,0-1h.75l0,.44h0a1.09,1.09,0,0,1,.94-.51c.6,0,1.06.41,1.06,1.33Z"/><path class="cls-9" d="M123.69,34.38l.85-.25V35h.72v.64h-.72V37c0,.39.13.55.39.55a1.14,1.14,0,0,0,.28,0v.66a1.63,1.63,0,0,1-.58.08c-.93,0-1-.81-1-1.18v-1.5h-.43V35h.43Z"/><path class="cls-9" d="M128.44,38.11a2.72,2.72,0,0,1-1.06.19,1.48,1.48,0,0,1-1.58-1.64,1.57,1.57,0,0,1,1.5-1.75c.79,0,1.3.56,1.3,1.62a1.72,1.72,0,0,1,0,.34h-2a.78.78,0,0,0,.89.78,2.5,2.5,0,0,0,.79-.13Zm-.64-1.84c0-.34-.13-.76-.56-.76s-.59.44-.61.76Z"/><path class="cls-9" d="M131.16,35.75h-.22c-.4,0-.69.26-.69.82v1.68h-.87V36c0-.4,0-.73,0-1h.74l0,.57h0a.9.9,0,0,1,.81-.64l.19,0Z"/></g></g></svg>