<svg xmlns="http://www.w3.org/2000/svg" viewBox="0 0 129.89 57.13"><defs><style>.cls-1,.cls-2{fill:#ec6c00;}.cls-1{fill-rule:evenodd;}</style></defs><g id="圖層_2" data-name="圖層 2"><g id="主協辦LOGO"><path class="cls-1" d="M80,23.22c.37-.09.47-.07.68-.28v0L77.2,21a15.16,15.16,0,0,1-.84,2.46,37.25,37.25,0,0,1-2.55,5.44,10.63,10.63,0,0,1-2,2.84A20.39,20.39,0,0,1,73.53,36h0a8.47,8.47,0,0,0,1.61-2.32l.09-.06,0,13.37,3.3-.48V28.71c.42-.05.48-.2.65-.46l-.93-.38C78.6,26.34,79.73,24.86,80,23.22ZM70,38.86c.13-.5.26-1,.4-1.49.22-1.11.43-2.22.65-3.33s.27-2.45.41-3.68c.13-.11.55,0,.8,0v-3L68.64,27c-.08-.06,0-.53,0-.71.1-.79.21-1.58.31-2.38a.7.7,0,0,0,.44-.19l0-.16-2.83-1.16a29.89,29.89,0,0,1-1.06,7.06,10.05,10.05,0,0,1-.8,2.71v.05c0-.12,0-.25,0-.38l-3.63-.11v-.59l3.29.11v-2.6l1.25.08c0-.83,0-1.66,0-2.49l-1.21-.14V23.49L61.09,23c0-1.1.2-.55.56-1.11v-.11l-3.23-.73h0v1.54l-3.67-.51V25l-1.55-.14,0,2.87v0l1.55.14,0,2.95,3.64.13,0,0v.57l-4.14-.11v5.6L57.42,37c-.12.26-.24.53-.37.79L53,38l.78,3.31a.54.54,0,0,0,.5-.44l1.3-.13-1,1.92,2.79.49.06-.14.56.16a11.76,11.76,0,0,1-4.1,1.25l0,0a5.69,5.69,0,0,1,1.21,2.92,15.86,15.86,0,0,0,5.81-2.84c.91.19,1.42,1,2.24,1.24l1.43-2.08.09-.06a6.66,6.66,0,0,1,.93,2l.07,0c.89-1.18,2.38-2.1,2.92-3.6h0l.77,1.24c.42.55,1,1,1.4,1.49l.1,0A29.13,29.13,0,0,1,72.34,42,7,7,0,0,1,70,38.86ZM61.09,25.33l.78.08,0,.59L61.09,26Zm0,2.84.78,0,0,.6-.81,0Zm-2.7,6.5-1.25,0v-.76h1.22l0,.71Zm0-6.07-.81-.05v-.62l0,0,.78.05,0,0Zm0-3-.84-.08,0-.65.78.08,0,0Zm2.7,8.28h1.15v.71l-1.15,0Zm0,6.18-.53,1-1.77-.62,0-.11c.29-.24,1.6-.15,2.05-.3h.22Zm5.9-.33A8.89,8.89,0,0,1,64.26,43l-1.37-.73c.16-.34.31-.67.47-1,.17-.51.35-1,.53-1.52l1.61-.24a9,9,0,0,0,.13-2.22l-5.53.35.21-.52a16.94,16.94,0,0,1,4.41-.35V34.64a3.78,3.78,0,0,1,1,1.57l.06,0,.56-1.11.06,0c.21,1,.42,2,.62,2.95.11.33.21.67.32,1Zm1.74-5.2h0A26.61,26.61,0,0,1,68,30.12l1.24.05C69.18,31.71,68.77,33.16,68.7,34.58Zm49-6.14A25.09,25.09,0,0,1,119,25l.38-1.11a.89.89,0,0,0,.62-.16l0-.08-3.51-2c-.19.57-.37,1.14-.56,1.7a34.41,34.41,0,0,1-1.59,3.74,24.86,24.86,0,0,1-2.33,3.92L111,32.45c-.12.18.35.81.46,1a14.3,14.3,0,0,1,1.28,3.14h0c.85-.62,1.29-1.81,1.92-2.62l0-.06,0,12.89,3.2-.46q0-8.56,0-17.11c.35-.05.57-.2.62-.52ZM92.29,21.86q.19,11.16.38,22.31l3-.36V41.38l4-.38,0-18.14ZM95.52,26l1.31.11,0,4.19-1.3-.05C95.55,28.78,95.54,27.37,95.52,26Zm.13,12-.06-4.31h1.3l0,4.23Zm11-10,3.14.22.06-2.9-3.14-.38,0-1.7c.29-.06.4-.13.5-.35a15.44,15.44,0,0,0-3-.82v2.55l-3.57-.41v3.28l3.48.3a8.43,8.43,0,0,1,0,1.7l-4.07-.24,0,3.33,6.21.08,0,1.59-6.15,0,0,3.2,6.12-.3,0,3.36c-.07.38.12.95-.06,1.24a6.16,6.16,0,0,1-2.18.3,15.4,15.4,0,0,1,.75,3.06A4.59,4.59,0,0,0,108,43.6c.71-1.07.51-4.81.5-6.55l1.43-.08.09-2.79h-1.46l0-1c.28-.09.43-.18.47-.48l-1.15-.06h2.14c0-.95,0-1.91.07-2.87l-3.45-.21ZM79.93,29.41,91.18,30V27l-4-.41V23.27c.23-.19.38-.06.53-.35v-.11l-3.23-.7,0,4.16-4.48-.43Zm48.81,9.18L128,37.7v-.06l-.09,1.55a21.05,21.05,0,0,1-.4,2.24l-.1.06c-.72-.09-.86-1.38-1-2a27.28,27.28,0,0,1-1-6.55l4.35-.46-.18-3.06,0,0-4.38.27-.09-5.79.44-.08.15-.24v-.14l-3.42-.73c0,2.44.19,4.82.19,7.17l-3.85.25c.1,1.2.2,2.4.31,3.6l3.79-.44h0a20.85,20.85,0,0,0,.43,3.6,28.89,28.89,0,0,0,1.4,5.69c.45,1,.93,2.26,2.3,2.44a2.24,2.24,0,0,0,.87-.17c1.58-.52,1.7-2.2,2-3.81.05-.51.1-1,.16-1.52C129.53,39.18,129.06,39,128.74,38.59ZM127.9,29l1.58-1.21.31-.27c-.11-.27-.22-.53-.34-.79a24.42,24.42,0,0,0-1.27-2.38c-.17-.29-.33-.76-.62-.95l-1.78,1.22-.06.08a4.41,4.41,0,0,1,.66,1.11A17.36,17.36,0,0,1,127.9,29ZM85.06,39.84a23,23,0,0,0-.4-4.23c-.14-1-.27-2-.41-2.92-.14-.75-.29-1.5-.43-2.25h-.16l-2.54.49c.3,1.27.33,2.6.59,4a30.32,30.32,0,0,1,.49,5.9Zm1.68-2.28c-.16.73-.31,1.46-.47,2.19l2.3.68L89.35,37c.16-1,.33-2,.5-3,.09-.67.18-1.33.28-2,.27-.09.43-.13.52-.38l-3-1.08c-.12,1.09-.25,2.18-.37,3.27C87.11,35,86.92,36.3,86.74,37.56Zm16.05-.22-2.17,1.76a13.67,13.67,0,0,1,2,3.82L104.88,41A10.83,10.83,0,0,0,102.79,37.34ZM79.56,45.25l11.9-1.65V40.49l-11.9,1.13Z"/><path class="cls-1" d="M9.78,25.42H8.87v3.5a5.58,5.58,0,0,0,.92,0c1.2,0,2.27-.46,2.27-1.77S10.93,25.42,9.78,25.42Zm2-2.28h0c0-1-.75-1.47-1.93-1.47a4.43,4.43,0,0,0-1,.08v3h1C11,24.69,11.77,24,11.77,23.14Zm24.7.88c-1.14,0-1.64,1.08-1.73,1.94H38C38,25.11,37.69,24,36.47,24Zm8.81.93c0,.54.35.79,1.15,1.13a2.33,2.33,0,0,1,1.48,1.26l-.85-3.18a2.22,2.22,0,0,0-.73-.13A.94.94,0,0,0,45.28,25ZM48,27.6A1.9,1.9,0,0,1,48,28c0,1.1-.84,1.83-2.19,1.83a3.28,3.28,0,0,1-1.63-.42l.26-.73a3,3,0,0,0,1.4.42c.83,0,1.24-.44,1.24-1s-.33-.9-1.15-1.23c-1-.42-1.58-1-1.58-1.75a1.83,1.83,0,0,1,2-1.77,3.28,3.28,0,0,1,.46,0L40.59,0,0,10.88,7.92,40.45V30.8h3.85L14.47,36a45.93,45.93,0,0,1,2.17,4.63h0a62.94,62.94,0,0,1-.31-6.38V30.8h3.24V45.34H16l-2.77-5.28a50,50,0,0,1-2.21-4.8H11c.11,1.69.19,3.91.19,6.51v3.57H9.24l2.26,8.44,32.23-8.64c-1.63-.8-1.67-2.67-1.67-3.6v-4.4H40.65V34.82l-3.21,5,3.29,5.47h-4l-.92-1.88c-.25-.5-.49-1.05-.7-1.58H35c-.2.55-.45,1.09-.67,1.6l-.82,1.86H29.74L33,40l-3.23-5.25h4l.88,1.75.74,1.64h.06c.23-.53.45-1.13.7-1.67l.77-1.72h5.16V32.82l3.56-.93v2.86H48v2.39H45.62v4c0,1.24.43,1.69,1.29,1.69a3.75,3.75,0,0,0,.94-.09V44l4.22-1.13ZM12.35,28.9a3.9,3.9,0,0,1-2.82.82,14.05,14.05,0,0,1-1.61-.09V21.11a8.91,8.91,0,0,1,1.87-.19,3.39,3.39,0,0,1,2.29.64,1.9,1.9,0,0,1,.65,1.5A2.08,2.08,0,0,1,11.26,25v0a2.22,2.22,0,0,1,1.79,2.19A2.26,2.26,0,0,1,12.35,28.9Zm5.92.75,0-1h0a2.24,2.24,0,0,1-2,1.11c-.93,0-2-.53-2-2.67V23.45h.95V27c0,1.2.35,2,1.39,2a1.63,1.63,0,0,0,1.61-1.68V23.45h.95V28c0,.64,0,1.18.06,1.65Zm7.4-8.58a.65.65,0,0,1,0,1.29.62.62,0,0,1-.62-.65A.63.63,0,0,1,25.67,21.07Zm.47,2.38v6.2h-.95v-6.2ZM22,26.82c-1.05-.42-1.58-1-1.58-1.75a1.83,1.83,0,0,1,2-1.77,2.73,2.73,0,0,1,1.43.38l-.28.72a2.2,2.2,0,0,0-1.2-.37A.93.93,0,0,0,21.3,25c0,.54.35.79,1.15,1.13C23.45,26.49,24,27,24,28c0,1.1-.84,1.83-2.2,1.83a3.27,3.27,0,0,1-1.62-.42l.26-.73a3,3,0,0,0,1.4.42c.83,0,1.24-.44,1.24-1S22.78,27.15,22,26.82Zm8.06,13a6.31,6.31,0,0,1-.11,1.39h-6.5c.08,1.27,1.31,1.85,2.8,1.85A9.3,9.3,0,0,0,29,42.65l.47,2.3a11.45,11.45,0,0,1-3.8.58c-3.62,0-5.67-2-5.67-5.3,0-3,1.92-5.68,5.36-5.68C28.07,34.55,30,36.24,30,39.83Zm2.67-10.18h-.94V26c0-1-.37-1.9-1.45-1.9a1.69,1.69,0,0,0-1.63,1.76v3.8h-.94v-4.6c0-.64,0-1.11-.05-1.61h.85l0,1h0a2.21,2.21,0,0,1,2-1.15c.77,0,2.09.47,2.09,2.58Zm6.25-3H34.72c0,1.72,1,2.37,2.1,2.37a3.91,3.91,0,0,0,1.63-.32l.18.68a4.47,4.47,0,0,1-1.94.39,2.82,2.82,0,0,1-2.89-3.13c0-1.95,1.09-3.35,2.76-3.35,1.91,0,2.4,1.76,2.4,2.84C39,26.35,39,26.51,38.94,26.66Zm2.33,3.12a3.27,3.27,0,0,1-1.62-.42l.26-.73a3,3,0,0,0,1.4.42c.83,0,1.24-.44,1.24-1s-.33-.9-1.15-1.23c-1-.42-1.58-1-1.58-1.75a1.83,1.83,0,0,1,2-1.77,2.7,2.7,0,0,1,1.43.38L43,24.4a2.18,2.18,0,0,0-1.2-.37.93.93,0,0,0-1,.92c0,.54.35.79,1.15,1.13,1,.41,1.58.93,1.58,1.87C43.47,29.05,42.63,29.78,41.27,29.78Zm-16.12,7c-1.23,0-1.7,1.24-1.76,2.13h3.33C26.72,38,26.4,36.82,25.15,36.82Z"/><path class="cls-2" d="M12.59,55.62l.41.74a4.23,4.23,0,0,1,.25.46h0a4.73,4.73,0,0,1,0-.53l0-.86.24-.07.45.72a4,4,0,0,1,.27.47h0a4.73,4.73,0,0,1,0-.54v-.84l.28-.08-.09,1.7-.25.07-.44-.68c-.1-.16-.19-.31-.28-.48h0a5.19,5.19,0,0,1,0,.56l-.05.8-.26.07L12.3,55.7Z"/><path class="cls-2" d="M14.91,55l.42.74c.09.16.18.31.25.46h0a5,5,0,0,1,0-.54l0-.86.24-.06.45.72c.1.17.19.32.27.47h0a4.44,4.44,0,0,1,0-.53l0-.85.28-.07-.09,1.69-.25.07-.44-.68c-.1-.16-.19-.3-.28-.47h0a5,5,0,0,1,0,.55l-.05.81-.26.07-.89-1.43Z"/><path class="cls-2" d="M17.24,54.37l.42.74c.09.16.18.31.25.47h0c0-.16,0-.34,0-.53l0-.86.24-.06.45.71c.1.17.19.32.27.47h0a4.52,4.52,0,0,1,0-.54l0-.84.28-.07-.09,1.69-.26.07-.43-.68a3.77,3.77,0,0,1-.28-.48h0a3.49,3.49,0,0,1,0,.56l0,.81-.26.06L17,54.45Z"/><path class="cls-2" d="M19.84,55.39a.21.21,0,0,1-.1-.41.19.19,0,0,1,.24.15.2.2,0,0,1-.14.26Z"/><path class="cls-2" d="M19.69,52.94l.28-.07.26,1h0a.63.63,0,0,1,.46-.43.74.74,0,0,1,.87.62.76.76,0,0,1-.48,1,.57.57,0,0,1-.6-.15h0l.06.26-.25.07c0-.11-.05-.27-.09-.41Zm.72,1.59,0,.1a.44.44,0,0,0,.51.21c.3-.08.41-.36.32-.72s-.32-.54-.62-.46a.47.47,0,0,0-.34.47.3.3,0,0,0,0,.12Z"/><path class="cls-2" d="M21.75,53.62l-.13-.42.25-.07.09.26h0A.58.58,0,0,1,22.4,53c.21-.06.58,0,.73.51l.25.93-.29.08-.24-.9c-.06-.25-.21-.44-.48-.37a.41.41,0,0,0-.3.4.29.29,0,0,0,0,.13l.25.94-.28.08Z"/><path class="cls-2" d="M23.72,53.53a.52.52,0,0,0,.68.4,1.3,1.3,0,0,0,.41-.2l.1.19a1.37,1.37,0,0,1-.49.24.75.75,0,0,1-1-.58.79.79,0,0,1,.51-1,.68.68,0,0,1,.84.56,1.15,1.15,0,0,1,0,.14Zm.78-.43a.42.42,0,0,0-.52-.35.48.48,0,0,0-.31.58Z"/><path class="cls-2" d="M25,52.3l.32.27.22.21h0l.09-.3.13-.39.3-.08-.33.9.77.66-.32.08-.33-.29-.24-.22h0c0,.11-.06.2-.1.31l-.13.41-.31.09.34-1-.73-.62Z"/><path class="cls-2" d="M26.56,51.48l.1.37.4-.11.06.22-.41.11.23.84c0,.19.14.29.29.24l.16-.06.07.21a.67.67,0,0,1-.24.11.43.43,0,0,1-.34,0,.56.56,0,0,1-.21-.38l-.23-.85-.24.07L26.14,52l.24-.06-.08-.29Z"/><path class="cls-2" d="M27.84,53.24a.19.19,0,0,1-.24-.15.18.18,0,0,1,.13-.25.21.21,0,0,1,.11.4Z"/><path class="cls-2" d="M29.39,52.73a1.06,1.06,0,0,1-.42.21.77.77,0,0,1-1-.59.81.81,0,0,1,.61-1.05,1.08,1.08,0,0,1,.42,0v.24a.7.7,0,0,0-.35,0,.57.57,0,0,0-.39.74.56.56,0,0,0,.7.44.73.73,0,0,0,.32-.17Z"/><path class="cls-2" d="M30.84,51.55a.79.79,0,0,1-.56,1,.77.77,0,0,1-1-.6.8.8,0,0,1,.55-1A.77.77,0,0,1,30.84,51.55Zm-1.24.35c.1.34.36.55.64.47a.55.55,0,0,0,.31-.73c-.07-.26-.29-.56-.63-.47A.55.55,0,0,0,29.6,51.9Z"/><path class="cls-2" d="M31,51.13c0-.16-.08-.29-.12-.41l.24-.07.08.25h0a.56.56,0,0,1,.42-.42.47.47,0,0,1,.52.19h0a.65.65,0,0,1,.12-.25.5.5,0,0,1,.31-.2c.21-.06.55,0,.69.54l.25.92-.28.07L33,50.87c-.08-.3-.24-.45-.47-.39a.39.39,0,0,0-.27.34.77.77,0,0,0,0,.15l.26,1L32.3,52l-.25-.93c-.07-.25-.22-.4-.44-.35a.39.39,0,0,0-.27.38.38.38,0,0,0,0,.15l.25.94-.27.07Z"/><path class="cls-2" d="M34.06,51.58a.2.2,0,0,1-.24-.16.2.2,0,1,1,.38-.1.2.2,0,0,1-.14.26Z"/><path class="cls-2" d="M34.34,49.39l.1.38.41-.11,0,.21-.4.11.22.84c.06.2.14.29.3.25a.4.4,0,0,0,.16-.07l.07.21a.67.67,0,0,1-.24.11.39.39,0,0,1-.34,0,.56.56,0,0,1-.22-.37l-.23-.85-.24.06-.06-.22.24-.06-.07-.29Z"/><path class="cls-2" d="M35.23,49.56l.42.73a5.21,5.21,0,0,1,.24.47h0c0-.16,0-.34,0-.53l0-.86.24-.06.45.71a4.94,4.94,0,0,1,.27.47h0c0-.16,0-.34,0-.54V49.1L37.2,49l-.08,1.69-.26.07-.44-.68a3.72,3.72,0,0,1-.27-.48h0c0,.19,0,.37,0,.55l-.06.81-.26.07-.88-1.44Z"/></g></g></svg>